PathFileType	4	(X/Y/Z)	C:/Users/beibeiliu/ov580/test_trc/User3\sequence.41_training_dense_right.trc
DataRate	CameraRate	NumFrames	NumMarkers	Units	OrigDataRate	OrigDataStartFrame	OrigNumFrames
120	120	10	19	mm	120	51	75
Frame#	Time	ThumbCMC			ThumbMCP			ThumbIP			ThumbTip			IndexMCP			IndexPIP			IndexTip			MiddleMCP			MiddlePIP			MiddleTip			RingMCP			RingPIP			RingTip			PinkyMCP			PinkyPIP			PinkyTip			BackHand1			BackHand2			BackHand3	
		X0	Y0	Z0	X1	Y1	Z1	X2	Y2	Z2	X3	Y3	Z3	X4	Y4	Z4	X5	Y5	Z5	X6	Y6	Z6	X7	Y7	Z7	X8	Y8	Z8	X9	Y9	Z9	X10	Y10	Z10	X11	Y11	Z11	X12	Y12	Z12	X13	Y13	Z13	X14	Y14	Z14	X15	Y15	Z15	X16	Y16	Z16	X17	Y17	Z17	X18	Y18	Z18	
50	0.416667	204.856	43.4602	2.40155	185.757	68.9245	-17.863	165.46	77.1055	-36.9993	141.529	71.8845	-52.3659	206.005	26.7974	-71.7147	201.799	40.2002	-96.56	192.204	54.4063	-114.886	185.621	11.3766	-78.0114	178.547	23.1786	-100.962	159.861	41.511	-122.894	162.948	1.65611	-65.7238	154.041	12.0233	-88.2311	135.707	32.817	-105.78	143.583	1.66827	-48.6846	131.227	14.7801	-66.2621	115.152	35.1292	-70.6473	180.844	-13.0099	-18.9319	183.365	-18.5483	10.8029	207.425	0.787038	-2.18789	
51	0.425	219.097	36.8382	7.95606	202.261	60.2492	-19.6908	183.093	70.6521	-37.5603	160.459	68.9073	-52.4751	215.682	15.974	-66.5948	213.613	28.9889	-91.6428	210.177	47.7563	-113.611	194.874	4.18349	-70.9381	190.104	16.7021	-98.7338	179.25	42.8463	-123.2	171.516	-0.0816192	-62.688	167.023	15.3138	-90.4513	152.049	37.2424	-104.204	154.087	3.08603	-49.6845	141.719	15.7916	-64.4276	135.166	43.2936	-75.5719	185.142	-16.5821	-15.9558	182.916	-21.9454	15.4878	216.514	-6.66548	-0.346979	
52	0.433333	230.264	28.7356	9.43659	216.729	55.9193	-16.6043	196.071	63.4629	-37.759	175.777	66.2155	-50.6051	224.374	10.6912	-66.7311	227.326	24.7631	-91.8154	218.198	44.0267	-111.594	201.441	-1.64443	-70.5274	201.187	12.0741	-96.3151	189.084	38.254	-117.921	183.199	1.53336	-62.485	176.719	17.2857	-84.9635	167.526	46.2634	-95.505	165.771	6.32492	-45.6392	159.718	24.0707	-63.9442	156.894	50.2423	-69.2455	187.853	-19.0762	-10.6838	191.017	-20.9391	21.745	219.685	-11.7321	3.3546	
53	0.441667	241.817	25.7646	15.2315	232.904	55.0227	-11.3476	213.678	65.4159	-31.5455	188.119	65.1077	-47.6125	237.511	8.92053	-58.6767	237.927	21.9528	-83.4691	234.342	42.8267	-101.757	216.062	-1.3473	-64.2285	211.015	12.2773	-95.7215	204.672	37.5314	-113.93	192.628	4.45328	-59.5981	188.724	21.45	-80.3868	189.207	54.3408	-87.9597	175.967	11.39	-41.6641	171.387	30.7141	-58.2174	176.687	56.5681	-62.6795	197.125	-17.7428	-4.86371	198.153	-20.7309	23.5163	232.088	-14.595	6.89381	
54	0.45	251.776	23.969	20.2046	246.965	51.6516	-4.07149	229.695	64.9663	-29.8085	209.54	68.4411	-40.5655	251.469	9.74423	-58.3453	256.781	25.5639	-82.9213	255.389	44.2156	-97.6346	229.138	-0.195717	-62.8415	228.189	13.9731	-92.6702	228.031	38.4899	-110.686	210.251	7.57262	-56.7546	203.906	23.7242	-78.0001	205.333	52.9751	-85.8169	191.27	16.9268	-42.9673	190.466	38.1475	-56.8647	193.357	67.2685	-57.8489	210.639	-13.5065	-5.47291	205.992	-18.3536	26.2012	242.36	-14.6407	7.99772	
55	0.458333	261.786	23.4755	21.5431	258.907	50.6087	-4.40347	246.87	67.2341	-24.9959	223.432	68.7996	-40.6277	267.781	9.61923	-53.8679	270.686	23.6787	-78.5584	272.001	42.0961	-94.8907	242.681	0.224393	-60.4844	244.581	12.9195	-88.6598	242.229	40.7624	-111.644	220.268	5.1072	-53.0096	224.246	22.7692	-80.0695	217.483	50.1277	-90.5546	202.998	14.8792	-40.1979	199.18	36.7108	-58.0414	206.127	60.857	-62.4581	220.113	-15.2504	-5.29299	216.256	-17.884	27.0557	254.775	-13.5102	11.0726	
56	0.466667	267.404	28.3981	21.3061	264.841	58.4998	-2.05454	252.537	72.633	-25.1612	232.914	77.6656	-40.6577	273.411	13.3209	-54.093	281.298	25.8922	-75.3472	281.523	45.8269	-97.0547	251.877	2.85788	-60.1183	252.439	14.1701	-87.005	252.611	39.9284	-111.259	231.604	4.70159	-53.2083	226.67	16.5721	-81.5595	222.329	40.7822	-96.3995	209.366	11.4099	-42.57	199.959	27.6647	-61.6033	199.438	53.7942	-69.4709	226.286	-13.2454	-3.36345	223.747	-17.9254	25.0832	257.922	-9.37183	10.8854	
57	0.475	258.646	34.3688	18.7808	253.847	64.2879	-7.25974	239.329	80.6589	-30.9764	220.773	80.3777	-41.106	266.326	18.0218	-55.5696	268.985	29.8286	-82.0938	266.052	48.8525	-102.906	241.803	5.68976	-64.3513	244.441	18.2057	-93.7812	238.748	39.8749	-115.749	219.766	3.39085	-56.4791	217.937	12.7669	-83.3585	214.4	35.5515	-103.581	195.119	5.70887	-46.5999	190.857	18.6637	-64.7669	183.451	43.8532	-79.5518	224.831	-12.9357	-6.09866	219.231	-17.4869	19.4851	251.681	-5.44785	7.4786	
58	0.483333	227.499	38.3411	7.65505	218.108	67.0562	-12.8293	202.253	81.3721	-35.4485	177.523	76.1634	-48.3669	227.856	20.6047	-64.0573	231.391	34.0867	-91.8382	225.17	49.3242	-111.071	207.427	5.83479	-68.2406	202.014	16.4612	-100.541	197.21	39.991	-125.063	190.334	2.59382	-60.7647	178.524	10.54	-87.8072	171.774	28.9831	-105.987	162.839	1.90114	-46.0853	152.445	14.3426	-65.7828	142.776	36.4287	-78.2346	193.527	-12.0785	-8.56092	194.751	-16.9527	21.417	225.199	-1.79327	2.76275	
59	0.491667	191.453	37.4525	0.060181	177.206	64.8985	-23.8707	152.079	67.4353	-43.4065	130.28	64.9882	-50.6349	186.874	17.8014	-71.718	179.995	26.7888	-97.7164	167.913	40.6793	-118.554	163.617	-0.151324	-74.905	155.019	7.70828	-103.11	142.778	26.8366	-124.704	145.288	-5.16082	-61.7142	132.099	2.63641	-87.0173	118.049	23.5085	-101.085	124.058	-1.79025	-42.0676	109.865	12.2822	-59.5507	104.335	36.6013	-66.4314	160.726	-13.938	-14.7947	166.521	-17.7939	19.0224	192.232	-3.40949	-3.23414	
